# xmcd CD database file
#
# Track frame offsets:
#	150
#	18737
#	35290
#	58125
#	74580
#	92985
#	115307
#	142345
#	166747
#	191915
#	213167
#	241670
#
# Disc length: 3551 seconds
#
# Revision: 0
# Processed by: cddbd v1.5.1PL2 Copyright (c) Steve Scherf et al.
# Submitted via: CDex 1.51
#
DISCID=b30ddd0c
DTITLE=Merengues en Remix 6 - La Nueva Mezcla
DYEAR=1999
DGENRE=Merengue
TTITLE0=Con Gana
TTITLE1=El Cepillo
TTITLE2=No es de Verdad
TTITLE3=Yo la vi
TTITLE4=Guallando
TTITLE5=calor
TTITLE6=el cepillo
TTITLE7=arcen las manos
TTITLE8=dar la vuelta
TTITLE9=pum pum pum
TTITLE10=cuerpo y alma
TTITLE11=fulanito mix
EXTD=YEAR: 1999
EXTT0=
EXTT1=
EXTT2=
EXTT3=
EXTT4=
EXTT5=
EXTT6=
EXTT7=
EXTT8=
EXTT9=
EXTT10=
EXTT11=
PLAYORDER=
